<svg xmlns="http://www.w3.org/2000/svg" width="720" height="1000" viewBox="0 0 720 1000"><defs><linearGradient id="g" x2="1" y2="1"><stop stop-color="#202242"/><stop offset="1" stop-color="#7969e8"/></linearGradient><radialGradient id="m"><stop stop-color="#fffbd8"/><stop offset="1" stop-color="#d9d0ff"/></radialGradient></defs><rect width="720" height="1000" rx="10" fill="url(#g)"/><circle cx="540" cy="265" r="120" fill="url(#m)" opacity=".95"/><path d="M0 780L145 628l112 82 94-162 142 140 87-98 140 170v240H0z" fill="#11182f"/><g fill="#fff" opacity=".8"><circle cx="105" cy="170" r="4"/><circle cx="160" cy="300" r="7"/><circle cx="320" cy="170" r="3"/><circle cx="430" cy="385" r="5"/><circle cx="620" cy="110" r="5"/><path d="M310 360l7 18 18 7-18 7-7 18-7-18-18-7 18-7z"/></g><text x="70" y="610" fill="#fff" font-family="Tahoma,sans-serif" font-size="58" font-weight="700">เมืองที่ดาว</text><text x="70" y="678" fill="#fff" font-family="Tahoma,sans-serif" font-size="58" font-weight="700">หลับใหล</text><text x="75" y="730" fill="#dcd7ff" font-family="Tahoma,sans-serif" font-size="20" letter-spacing="4">A LUMISHELF ORIGINAL</text></svg>
